<?xml version="1.0" standalone="no"?>
<!DOCTYPE svg PUBLIC "-//W3C//DTD SVG 20010904//EN"
 "http://www.w3.org/TR/2001/REC-SVG-20010904/DTD/svg10.dtd">
<svg version="1.0" xmlns="http://www.w3.org/2000/svg"
 width="400.000000pt" height="265.000000pt" viewBox="0 0 400.000000 265.000000"
 preserveAspectRatio="xMidYMid meet">

<g transform="translate(0.000000,265.000000) scale(0.100000,-0.100000)"
fill="#000000" stroke="none">
<path d="M1748 2383 l-118 -67 0 -72 0 -71 -31 -7 c-58 -11 -59 -10 -59 49 0
36 -4 55 -12 55 -6 0 -49 -18 -96 -41 -111 -53 -121 -75 -122 -243 0 -108 1
-118 18 -113 9 3 69 24 132 46 149 52 265 72 420 72 155 0 271 -20 420 -72 63
-22 123 -43 133 -46 15 -5 17 5 17 113 0 165 -13 190 -124 244 -45 22 -88 40
-94 40 -8 0 -12 -19 -12 -55 0 -59 -1 -60 -59 -49 l-31 7 0 71 0 72 -119 67
c-66 37 -125 67 -133 67 -7 -1 -66 -31 -130 -67z m200 -45 c116 -64 112 -59
112 -148 l0 -78 63 -11 c34 -6 83 -14 108 -17 l46 -6 6 42 c3 23 8 44 11 47
10 10 74 -37 80 -60 3 -12 6 -48 6 -81 0 -51 -2 -57 -17 -51 -192 79 -499 110
-703 71 -78 -14 -220 -53 -262 -71 -16 -6 -18 -1 -18 51 0 33 3 69 6 81 6 23
70 70 80 60 3 -3 8 -24 11 -47 l6 -42 46 6 c25 3 74 11 109 17 l62 11 0 82 0
81 83 47 c45 26 88 48 95 48 7 0 38 -14 70 -32z"/>
<path d="M500 1585 l0 -366 -31 -17 c-16 -9 -51 -30 -76 -47 l-46 -30 2 -156
2 -157 -31 -13 -30 -14 0 -222 0 -223 90 0 90 0 0 90 c0 78 2 91 19 100 37 19
51 -11 51 -106 l0 -84 188 2 187 3 2 150 c2 83 5 160 8 173 6 26 60 62 93 62
35 0 77 -25 90 -55 8 -16 12 -82 12 -180 l0 -155 315 0 315 0 0 228 c0 200 3
232 19 268 48 105 194 117 265 21 20 -27 21 -42 24 -273 l3 -244 287 2 287 3
5 160 c3 88 9 167 13 176 11 21 60 49 89 49 33 0 87 -36 93 -62 3 -13 6 -90 8
-173 l2 -150 188 -3 187 -2 0 84 c0 95 14 125 51 106 17 -9 19 -22 19 -100 l0
-90 90 0 90 0 0 220 0 219 -30 16 -30 16 0 162 0 162 -75 40 -75 40 0 367 0
368 -85 0 c-134 0 -185 -41 -185 -147 l0 -53 -55 0 -55 0 0 53 c0 106 -51 147
-185 147 l-85 0 0 -155 c0 -85 -3 -155 -7 -155 -5 0 -39 17 -78 38 -70 37 -70
37 -73 82 -3 51 3 47 -137 96 -155 55 -237 68 -430 68 -197 1 -274 -11 -428
-64 -121 -42 -147 -53 -148 -65 0 -5 -1 -26 -2 -45 -2 -33 -7 -38 -72 -72 -38
-21 -73 -38 -77 -38 -5 0 -8 70 -8 155 l0 155 -89 0 c-75 0 -93 -3 -122 -23
-44 -30 -59 -60 -59 -124 l0 -53 -55 0 -55 0 0 50 c0 62 -21 105 -63 130 -25
16 -50 20 -119 20 l-88 0 0 -365z m182 278 c15 -13 18 -31 18 -100 l0 -83 125
0 125 0 0 82 c0 101 11 118 82 118 l48 0 0 -125 0 -125 -255 0 -255 0 0 125 0
125 47 0 c29 0 53 -6 65 -17z m2110 0 c15 -13 18 -31 18 -100 l0 -83 125 0
125 0 0 82 c0 101 11 118 82 118 l48 0 0 -125 0 -125 -255 0 -255 0 0 125 0
125 47 0 c29 0 53 -6 65 -17z m-773 -9 l61 -7 0 -253 0 -254 -200 0 -200 0 0
254 0 255 43 4 c77 7 233 7 296 1z m-409 -304 l0 -280 270 0 270 0 0 280 c0
154 4 280 8 280 13 0 196 -59 209 -68 10 -6 13 -157 13 -678 l1 -669 -125 -3
-125 -3 -3 219 -3 219 -28 41 c-15 23 -46 54 -69 69 -37 25 -51 28 -122 28
-71 0 -86 -3 -123 -27 -23 -15 -54 -49 -70 -75 -28 -48 -28 -48 -31 -260 l-3
-213 -150 0 -149 0 0 674 0 674 43 17 c55 21 159 53 175 54 9 1 12 -61 12
-279z m-302 26 c0 -30 -5 -61 -11 -69 -12 -15 -412 -227 -429 -227 -5 0 -8 28
-6 63 l3 62 215 112 c118 62 218 113 221 113 3 0 6 -24 7 -54z m1372 -59 l215
-112 3 -62 c2 -42 -1 -63 -8 -63 -7 0 -39 15 -73 34 -34 18 -125 66 -202 106
-77 40 -146 77 -152 82 -14 11 -19 128 -5 128 4 0 104 -51 222 -113z m-1745 3
c-38 -21 -87 -47 -107 -56 l-38 -17 0 -107 0 -106 -65 -35 -65 -34 0 -97 0
-98 -40 -20 c-21 -11 -42 -20 -45 -20 -3 0 -5 142 -5 315 l0 315 218 0 217 0
-70 -40z m2255 -276 c0 -174 -3 -314 -7 -312 -5 2 -25 10 -45 18 l-38 14 0
101 0 100 -65 34 -65 33 0 107 0 106 -78 39 c-160 82 -166 76 81 76 l217 0 0
-316z m-1882 -326 l-3 -503 -55 0 -55 0 -5 135 c-3 75 -10 144 -17 155 -32 56
-99 95 -162 95 -46 0 -110 -40 -136 -84 -23 -40 -25 -52 -25 -174 l0 -132 -60
0 -60 0 0 358 0 357 93 47 c50 26 178 92 282 147 105 55 193 101 198 101 4 0
6 -226 5 -502z m1438 355 l284 -148 0 -358 0 -358 -57 3 -58 3 -5 135 c-6 158
-21 194 -94 229 -67 33 -136 23 -189 -26 -47 -46 -52 -62 -57 -203 l-5 -135
-55 0 -55 0 -3 503 c-1 276 1 502 4 502 3 0 134 -66 290 -147z m-2246 -265
l-1 -123 -36 -17 c-20 -10 -38 -16 -40 -15 -4 4 -6 238 -2 241 9 7 65 35 72
36 4 0 7 -55 7 -122z m2808 102 l32 -20 0 -119 0 -120 -40 17 -40 17 0 123 c0
67 3 122 8 122 4 0 22 -9 40 -20z m-2648 -460 l0 -240 -24 0 c-22 0 -24 5 -29
66 -4 54 -10 71 -32 94 -33 34 -70 43 -111 25 -48 -20 -64 -50 -64 -122 0 -56
-2 -63 -20 -63 -19 0 -20 7 -20 165 l0 165 148 74 c81 41 148 75 150 75 1 1 2
-107 2 -239z m2740 -75 c0 -158 -1 -165 -20 -165 -18 0 -20 7 -20 63 0 71 -16
102 -62 121 -85 36 -148 -26 -148 -145 0 -35 -3 -39 -25 -39 l-25 0 0 240 0
240 150 -75 150 -75 0 -165z"/>
</g>
</svg>
