<svg width="36" height="36" viewBox="0 0 36 36" fill="none" xmlns="http://www.w3.org/2000/svg">
<path d="M6.48984 0.046505C6.14531 0.156071 5.64609 0.535324 5.44219 0.855587C5.18906 1.26012 5.0625 1.82479 5.0625 2.60017V3.25754H2.74922H0.428906L0.232031 3.45981L0.0351562 3.66208L0.0140625 19.5571L0 35.4522L0.203906 35.7219L0.407812 36H18H35.5922L35.7961 35.7219L36 35.4522L35.9859 19.5571L35.9648 3.66208L35.768 3.45981L35.5711 3.25754H33.2508H30.9375V2.60017C30.9375 1.39497 30.6281 0.6786 29.925 0.248775C28.9617 -0.349606 27.7383 0.240349 27.3867 1.47925C27.3234 1.69838 27.2812 2.14506 27.2812 2.55803V3.25754H23.5547H19.8281V2.68444C19.8281 1.87536 19.6664 1.29384 19.3148 0.83873C18.9281 0.324627 18.5766 0.139214 17.993 0.139214C17.6414 0.139214 17.4516 0.189781 17.1703 0.358337C16.4812 0.771305 16.1719 1.46239 16.1719 2.60017V3.25754H12.4453H8.71875V2.55803C8.71875 1.74052 8.59219 1.23484 8.28984 0.788162C7.89609 0.215065 7.06641 -0.130482 6.48984 0.046505ZM7.21406 1.77423C7.34062 1.89222 7.34766 2.01864 7.34766 4.0582C7.34766 6.09775 7.34062 6.22417 7.21406 6.34216C7.03828 6.49386 6.74297 6.49386 6.56719 6.34216C6.44062 6.2326 6.43359 6.08932 6.4125 4.26046C6.39844 3.17326 6.40547 2.21248 6.42656 2.11135C6.51797 1.68995 6.91875 1.52139 7.21406 1.77423ZM29.3625 1.72366C29.5734 1.88379 29.6016 2.1872 29.6016 4.04977C29.6016 5.32238 29.5734 6.0219 29.5172 6.16517C29.3695 6.56129 28.807 6.55286 28.6805 6.14832C28.6383 6.01347 28.6172 5.12854 28.6312 3.90649C28.6523 2.02707 28.6594 1.88379 28.7859 1.77423C28.9336 1.64781 29.2359 1.62253 29.3625 1.72366ZM18.3234 1.9175C18.45 2.08606 18.457 2.24619 18.457 4.20147V6.30845L18.2883 6.46858C18.0703 6.6877 17.8875 6.67085 17.6836 6.41801L17.5078 6.21574V4.15933C17.5078 2.21248 17.5148 2.10292 17.6484 1.92593C17.8312 1.68995 18.1477 1.68995 18.3234 1.9175ZM5.0625 5.51622C5.0625 5.87862 5.11172 6.36744 5.16797 6.595C5.56172 8.18787 7.35469 8.63455 8.25469 7.37037C8.59219 6.90683 8.71875 6.40116 8.71875 5.55836V4.85885H12.4453H16.1719V5.67636C16.1719 6.61185 16.2984 7.05853 16.6852 7.53892C17.0648 8.01932 17.4023 8.18787 18 8.18787C18.45 8.18787 18.5766 8.15416 18.8578 7.96032C19.5469 7.4715 19.8281 6.77198 19.8281 5.55836V4.85885H23.5547H27.2812V5.55836C27.2812 6.40116 27.4078 6.90683 27.7453 7.37037C28.6453 8.63455 30.4383 8.18787 30.832 6.595C30.8883 6.36744 30.9375 5.87862 30.9375 5.51622V4.85885H32.8008H34.6641V7.21866V9.57848H18H1.33594V7.21866V4.85885H3.19922H5.0625V5.51622ZM34.65 22.785L34.6641 34.3566H18H1.33594V22.8272C1.33594 16.4809 1.35703 11.2641 1.38516 11.2388C1.40625 11.2051 8.90156 11.1882 18.0281 11.1966L34.6289 11.2219L34.65 22.785Z" fill="black"/>
<path d="M4.95704 13.2358C4.86563 13.3454 4.77422 13.5645 4.7461 13.7162C4.72501 13.8764 4.71094 15.0057 4.72501 16.2193L4.7461 18.4443L4.97813 18.6887L5.20313 18.9331H7.17891C9.33751 18.9331 9.46407 18.9078 9.62579 18.4443C9.68204 18.2757 9.70313 17.5172 9.68907 15.8232L9.66797 13.4381L9.4711 13.2358L9.27422 13.0336H7.20001H5.12579L4.95704 13.2358ZM8.35313 15.9581L8.33204 17.2897L7.22813 17.3149L6.11719 17.3402V15.9833V14.6349H7.24219H8.37422L8.35313 15.9581Z" fill="black"/>
<path d="M12.1359 13.2948L11.9531 13.5561V16.0002V18.4443L12.157 18.6887L12.3609 18.9331H14.4141H16.4672L16.6711 18.6887L16.875 18.4443V16.0002V13.5561L16.6922 13.2948L16.5094 13.0336H14.4141H12.3187L12.1359 13.2948ZM15.5391 15.9833V17.3318H14.4141H13.2891V15.9833V14.6349H14.4141H15.5391V15.9833Z" fill="black"/>
<path d="M19.357 13.2358L19.1602 13.4381L19.1391 15.8232C19.125 17.5172 19.1461 18.2757 19.2023 18.4443C19.3641 18.9078 19.4906 18.9331 21.6492 18.9331H23.625L23.85 18.6887L24.082 18.4443L24.1031 16.2193C24.1172 15.0057 24.1031 13.8764 24.082 13.7162C24.0609 13.5645 23.9625 13.3454 23.8711 13.2358L23.7023 13.0336H21.6281H19.5539L19.357 13.2358ZM22.7109 15.9833V17.3402L21.607 17.3149L20.4961 17.2897L20.475 15.9581L20.4539 14.6349H21.5859H22.7109V15.9833Z" fill="black"/>
<path d="M26.543 13.2443L26.3672 13.4465V15.9749V18.4949L26.5852 18.714L26.8031 18.9331H28.7578C29.8336 18.9331 30.7969 18.8994 30.8953 18.8488C31.2609 18.6887 31.2891 18.478 31.2891 15.8991V13.5224L31.0852 13.278L30.8812 13.0336H28.793H26.7117L26.543 13.2443ZM29.9531 15.9833V17.3318H28.8281H27.7031V15.9833V14.6349H28.8281H29.9531V15.9833Z" fill="black"/>
<path d="M5.06953 20.2301C4.73203 20.4577 4.71797 20.5841 4.71094 23.0451C4.71094 25.4892 4.73906 25.7167 5.05547 25.9274C5.24531 26.0454 9.17578 26.0454 9.36562 25.919C9.66094 25.7252 9.70312 25.3965 9.70312 23.0535C9.70312 20.66 9.66797 20.4071 9.30937 20.2049C9.04219 20.0616 5.29453 20.0784 5.06953 20.2301ZM8.29688 23.0619V24.4104H7.17188H6.04688V23.1209C6.04688 22.4046 6.06797 21.7977 6.09609 21.7725C6.11719 21.7387 6.62344 21.7135 7.22109 21.7135H8.29688V23.0619Z" fill="black"/>
<path d="M12.1711 20.3345L11.9531 20.5536V23.0651V25.5682L12.1359 25.7958L12.3258 26.0149H14.393H16.4672L16.6711 25.7705L16.875 25.5261V23.0651V20.6042L16.6711 20.3598L16.4672 20.1154H14.4281H12.3891L12.1711 20.3345ZM15.5391 23.0651V24.4136H14.4141H13.2891V23.0651V21.7167H14.4141H15.5391V23.0651Z" fill="black"/>
<path d="M19.3289 20.3598L19.125 20.6042V23.0651V25.5261L19.3289 25.7705L19.5328 26.0149H21.607H23.6742L23.8641 25.7958L24.0469 25.5682V23.0651V20.5536L23.8289 20.3345L23.6109 20.1154H21.5719H19.5328L19.3289 20.3598ZM22.7109 23.0651V24.4136H21.5859H20.4609V23.0651V21.7167H21.5859H22.7109V23.0651Z" fill="black"/>
<path d="M26.6695 20.2133C26.332 20.4071 26.2969 20.6853 26.2969 23.0535C26.2969 25.3965 26.3391 25.7252 26.6344 25.919C26.8242 26.0454 30.7547 26.0454 30.9445 25.9274C31.2609 25.7167 31.2891 25.4807 31.2891 23.0704C31.2891 21.4859 31.2609 20.7274 31.2047 20.5757C31.0359 20.1374 30.9023 20.1122 28.7789 20.1206C27.5555 20.1206 26.768 20.1543 26.6695 20.2133ZM29.9391 23.0788L29.9602 24.4104H28.8281H27.7031V23.0619V21.705L28.8141 21.7303L29.918 21.7556L29.9391 23.0788Z" fill="black"/>
<path d="M5.06953 27.3098C4.73203 27.5373 4.71797 27.6637 4.71094 30.2005V32.5856L4.91484 32.8553L5.11875 33.1335L6.975 33.1587C7.9875 33.1756 8.92969 33.1587 9.06328 33.1335C9.18984 33.0997 9.37266 32.9902 9.46406 32.8806L9.63281 32.6784V30.1921V27.7059L9.46406 27.4699L9.29531 27.2339L7.26328 27.2171C5.66719 27.2002 5.20312 27.2171 5.06953 27.3098ZM8.29688 30.1415V31.49H7.17188H6.04688V30.2005C6.04688 29.4842 6.06797 28.8774 6.09609 28.8521C6.11719 28.8184 6.62344 28.7931 7.22109 28.7931H8.29688V30.1415Z" fill="black"/>
<path d="M12.3398 27.2678C12.2625 27.3099 12.1359 27.4279 12.0586 27.529C11.925 27.706 11.918 27.8577 11.8969 30.0153C11.8758 31.9284 11.8898 32.3667 11.9812 32.6195C12.1641 33.1589 12.3187 33.1842 14.5266 33.1589L16.4531 33.1336L16.643 32.8976L16.8398 32.6701L16.8609 30.2175L16.882 27.7734L16.6359 27.4785L16.3969 27.1919L14.4422 27.2003C13.3594 27.2003 12.4172 27.2341 12.3398 27.2678ZM15.525 30.1585L15.5461 31.4902H14.4141H13.2891V30.1417V28.7848L14.4 28.8101L15.5039 28.8354L15.525 30.1585Z" fill="black"/>
<path d="M19.4625 27.3273C19.357 27.3947 19.2375 27.5211 19.1953 27.6138C19.1531 27.7065 19.125 28.6926 19.125 30.1844C19.125 32.8392 19.132 32.9066 19.5609 33.0836C19.6945 33.1426 20.482 33.1763 21.6 33.1763C23.5336 33.1763 23.8078 33.1257 23.9695 32.7717C24.075 32.5442 24.075 27.833 23.9766 27.6054C23.8008 27.2262 23.6109 27.1924 21.5719 27.1924C20.018 27.2009 19.6172 27.2262 19.4625 27.3273ZM22.7109 30.1422V31.4907H21.5859H20.4609V30.2012C20.4609 29.4848 20.482 28.878 20.5102 28.8527C20.5312 28.819 21.0375 28.7937 21.6352 28.7937H22.7109V30.1422Z" fill="black"/>
<path d="M26.7539 27.2676C26.6766 27.3097 26.55 27.4277 26.4727 27.5288C26.3391 27.7058 26.332 27.8323 26.332 30.1921V32.6699L26.5289 32.8974L26.7188 33.1334L28.6453 33.1587C30.7969 33.184 30.9727 33.1503 31.1836 32.6699C31.282 32.4508 31.2891 32.0884 31.275 30.0572L31.2539 27.6974L31.057 27.4699L30.8672 27.2339L28.8773 27.217C27.7875 27.2086 26.8312 27.2339 26.7539 27.2676ZM29.8828 30.1415V31.49H28.7578H27.6328V30.2005C27.6328 29.4841 27.6539 28.8773 27.682 28.852C27.7031 28.8183 28.2094 28.793 28.807 28.793H29.8828V30.1415Z" fill="black"/>
</svg>
