<svg width="36" height="36" viewBox="0 0 36 36" fill="none" xmlns="http://www.w3.org/2000/svg">
<path d="M2.17969 5.16078C1.11797 5.44906 0.288284 6.31391 0.0703153 7.36157C0.0210965 7.58657 2.77183e-06 11.2077 0.0140653 18.2178L0.035159 28.7296L0.295315 29.2569C0.618753 29.9108 1.08282 30.3679 1.74375 30.6773L2.21485 30.9023L17.7891 30.9234C28.0266 30.9304 33.4758 30.9163 33.6938 30.8671C34.5586 30.6843 35.2828 30.1077 35.6977 29.264L35.9648 28.7296L35.9859 18.2178C36 11.3483 35.9789 7.58657 35.9297 7.3686C35.7469 6.49672 35.1281 5.72328 34.2984 5.33656L33.7852 5.0975L18.1406 5.08343C5.84297 5.0764 2.42578 5.09047 2.17969 5.16078ZM33.3844 6.46156C33.4898 6.52484 33.4266 6.58813 24.6797 14.6881C21.4523 17.6835 18.6328 20.2991 18.4148 20.51L18.0281 20.8827L16.3758 19.3569C6.03985 9.78735 2.53828 6.51078 2.61563 6.45453C2.73516 6.38422 33.2648 6.38422 33.3844 6.46156ZM7.21407 12.7053L12.8742 17.9577L12.5367 18.2882C11.7773 19.0335 1.51875 28.5468 1.47657 28.5468C1.44844 28.5468 1.40625 28.4483 1.37813 28.3288C1.32188 28.0405 1.32188 7.95922 1.37813 7.67094C1.40625 7.55141 1.45547 7.45297 1.49063 7.45297C1.52578 7.45297 4.09922 9.81548 7.21407 12.7053ZM34.6219 7.67094C34.643 7.79047 34.6641 12.4381 34.6641 17.9999C34.6641 23.5616 34.643 28.2093 34.6219 28.3288C34.5938 28.4483 34.5516 28.5468 34.5305 28.5468C34.425 28.5468 23.1328 17.9718 23.182 17.9225C26.8594 14.4983 34.4883 7.45297 34.5234 7.45297C34.5516 7.45297 34.5938 7.55141 34.6219 7.67094ZM15.8766 20.7421C16.8188 21.6139 17.6625 22.3663 17.7609 22.4155C17.8664 22.4718 18.0211 22.4929 18.1406 22.4647C18.2742 22.4366 18.9844 21.8319 20.2289 20.6718C21.8531 19.1671 22.1273 18.935 22.2328 19.0053C22.2961 19.0546 24.8625 21.4311 27.9352 24.2929C32.0625 28.139 33.4898 29.5101 33.4055 29.5452C33.2578 29.6085 2.74219 29.6085 2.59453 29.5452C2.51719 29.5101 3.99375 28.0968 8.17735 24.2015C13.8375 18.935 13.8656 18.9139 14.0203 19.0335C14.1047 19.1038 14.9414 19.8702 15.8766 20.7421Z" fill="black"/>
</svg>
