<svg width="36" height="36" viewBox="0 0 36 36" fill="none" xmlns="http://www.w3.org/2000/svg">
<path d="M18.0141 9.5625C17.0128 9.5625 16.034 9.85941 15.2015 10.4157C14.369 10.972 13.7201 11.7626 13.3369 12.6877C12.9538 13.6127 12.8535 14.6306 13.0488 15.6126C13.2442 16.5947 13.7263 17.4967 14.4343 18.2047C15.1423 18.9127 16.0444 19.3949 17.0264 19.5902C18.0084 19.7856 19.0263 19.6853 19.9514 19.3021C20.8764 18.919 21.6671 18.2701 22.2234 17.4376C22.7797 16.6051 23.0766 15.6263 23.0766 14.625C23.0766 13.2823 22.5432 11.9947 21.5938 11.0453C20.6444 10.0959 19.3567 9.5625 18.0141 9.5625ZM18.0141 18.5625C17.2353 18.5625 16.474 18.3316 15.8265 17.8989C15.179 17.4663 14.6743 16.8513 14.3763 16.1318C14.0783 15.4123 14.0003 14.6206 14.1522 13.8568C14.3041 13.093 14.6792 12.3914 15.2298 11.8408C15.7805 11.2901 16.4821 10.9151 17.2459 10.7632C18.0097 10.6112 18.8014 10.6892 19.5209 10.9872C20.2404 11.2852 20.8553 11.7899 21.288 12.4374C21.7206 13.085 21.9516 13.8462 21.9516 14.625C21.9479 15.6681 21.5318 16.6675 20.7942 17.4051C20.0566 18.1428 19.0572 18.5588 18.0141 18.5625ZM18.0141 2.8125C14.8823 2.81622 11.8799 4.06194 9.66547 6.27641C7.45101 8.49088 6.20528 11.4933 6.20156 14.625C6.20156 18.9 8.19844 23.4563 11.9672 27.7875C13.6768 29.7573 15.596 31.5349 17.6906 33.0891C17.7861 33.1538 17.8987 33.1883 18.0141 33.1883C18.1294 33.1883 18.242 33.1538 18.3375 33.0891C20.4322 31.5349 22.3513 29.7573 24.0609 27.7875C27.8297 23.4563 29.8266 18.9 29.8266 14.625C29.8228 11.4933 28.5771 8.49088 26.3626 6.27641C24.1482 4.06194 21.1458 2.81622 18.0141 2.8125ZM23.2312 27.0281C21.6685 28.8377 19.9198 30.478 18.0141 31.9219C16.1115 30.4741 14.3632 28.8342 12.7969 27.0281C10.3078 24.1594 7.32656 19.6734 7.32656 14.625C7.32656 11.7905 8.45256 9.07209 10.4569 7.0678C12.4612 5.0635 15.1796 3.9375 18.0141 3.9375C20.8486 3.9375 23.567 5.0635 25.5713 7.0678C27.5756 9.07209 28.7016 11.7905 28.7016 14.625C28.7016 19.6734 25.7344 24.1594 23.2312 27.0281Z" fill="black"/>
</svg>
