<svg width="64" height="45" viewBox="0 0 64 45" fill="none" xmlns="http://www.w3.org/2000/svg">
<g clip-path="url(#clip0_2_6)">
<path d="M29.279 4.53396L27.3025 5.6717V6.89434V8.1L26.7832 8.21887C25.8117 8.40566 25.795 8.38868 25.795 7.38679C25.795 6.77547 25.728 6.45283 25.594 6.45283C25.4935 6.45283 24.7732 6.75849 23.986 7.14906C22.1267 8.04906 21.9592 8.42264 21.9425 11.2755C21.9425 13.1094 21.9592 13.2792 22.244 13.1943C22.3947 13.1434 23.3997 12.7868 24.455 12.4132C26.9507 11.5302 28.8937 11.1906 31.49 11.1906C34.0862 11.1906 36.0292 11.5302 38.525 12.4132C39.5802 12.7868 40.5852 13.1434 40.7527 13.1943C41.004 13.2792 41.0375 13.1094 41.0375 11.2755C41.0375 8.47358 40.8197 8.04906 38.9605 7.13207C38.2067 6.75849 37.4865 6.45283 37.386 6.45283C37.252 6.45283 37.185 6.77547 37.185 7.38679C37.185 8.38868 37.1682 8.40566 36.1967 8.21887L35.6775 8.1V6.89434V5.6717L33.6842 4.53396C32.5787 3.90566 31.5905 3.39623 31.4565 3.39623C31.3392 3.41321 30.351 3.92264 29.279 4.53396ZM32.629 5.29811C34.572 6.3849 34.505 6.3 34.505 7.81132V9.13585L35.5602 9.32264C36.1297 9.42453 36.9505 9.56038 37.3692 9.61132L38.1397 9.71321L38.2402 9C38.2905 8.60943 38.3742 8.25283 38.4245 8.20189C38.592 8.03207 39.664 8.83019 39.7645 9.22075C39.8147 9.42453 39.865 10.0358 39.865 10.5962C39.865 11.4623 39.8315 11.5641 39.5802 11.4623C36.3642 10.1208 31.222 9.59434 27.805 10.2566C26.4985 10.4943 24.12 11.1566 23.4165 11.4623C23.1485 11.5641 23.115 11.4792 23.115 10.5962C23.115 10.0358 23.1652 9.42453 23.2155 9.22075C23.316 8.83019 24.388 8.03207 24.5555 8.20189C24.6057 8.25283 24.6895 8.60943 24.7397 9L24.8402 9.71321L25.6107 9.61132C26.0295 9.56038 26.8502 9.42453 27.4365 9.32264L28.475 9.13585V7.7434V6.36792L29.8652 5.56981C30.619 5.1283 31.3392 4.75472 31.4565 4.75472C31.5737 4.75472 32.093 4.99245 32.629 5.29811Z" fill="white"/>
<path d="M8.375 18.0849V24.3L7.85575 24.5887C7.58775 24.7415 7.0015 25.0981 6.58275 25.3868L5.81225 25.8962L5.84575 28.5453L5.87925 31.2113L5.36 31.4321L4.8575 31.6698V35.4396V39.2264H6.365H7.8725V37.6981C7.8725 36.3736 7.906 36.1528 8.19075 36C8.8105 35.6774 9.045 36.1868 9.045 37.8V39.2264L12.194 39.1924L15.3262 39.1415L15.3597 36.5943C15.3932 35.1849 15.4435 33.8774 15.4937 33.6566C15.5942 33.2151 16.4987 32.6038 17.0515 32.6038C17.6377 32.6038 18.3412 33.0283 18.559 33.5377C18.693 33.8094 18.76 34.9302 18.76 36.5943V39.2264H24.0362H29.3125V35.3547C29.3125 31.9585 29.3627 31.4151 29.6307 30.8038C30.4347 29.0208 32.8802 28.817 34.0695 30.4472C34.4045 30.9057 34.4212 31.1604 34.4715 35.083L34.5217 39.2264L39.329 39.1924L44.1362 39.1415L44.22 36.4245C44.2702 34.9302 44.3707 33.5887 44.4377 33.4358C44.622 33.0792 45.4427 32.6038 45.9285 32.6038C46.4812 32.6038 47.3857 33.2151 47.4862 33.6566C47.5365 33.8774 47.5867 35.1849 47.6202 36.5943L47.6537 39.1415L50.8027 39.1924L53.935 39.2264V37.8C53.935 36.1868 54.1695 35.6774 54.7892 36C55.074 36.1528 55.1075 36.3736 55.1075 37.6981V39.2264H56.615H58.1225V35.4906V31.7717L57.62 31.5L57.1175 31.2283V28.4774V25.7264L55.8612 25.0472L54.605 24.3679V18.1358V11.8868H53.1812C50.9367 11.8868 50.0825 12.583 50.0825 14.383V15.283H49.1612H48.24V14.383C48.24 12.583 47.3857 11.8868 45.1412 11.8868H43.7175V14.5189C43.7175 15.9623 43.6672 17.1509 43.6002 17.1509C43.5165 17.1509 42.947 16.8623 42.2937 16.5057C41.1212 15.8774 41.1212 15.8774 41.071 15.1132C41.0207 14.2472 41.1212 14.3151 38.7762 13.483C36.18 12.5491 34.8065 12.3283 31.5737 12.3283C28.274 12.3113 26.9842 12.5151 24.4047 13.4151C22.378 14.1283 21.9425 14.3151 21.9257 14.5189C21.9257 14.6038 21.909 14.9604 21.8922 15.283C21.8587 15.8434 21.775 15.9283 20.6862 16.5057C20.0497 16.8623 19.4635 17.1509 19.3965 17.1509C19.3127 17.1509 19.2625 15.9623 19.2625 14.5189V11.8868H17.7717C16.5155 11.8868 16.214 11.9377 15.7282 12.2774C14.9912 12.7868 14.74 13.2962 14.74 14.383V15.283H13.8187H12.8975V14.434C12.8975 13.3811 12.5457 12.6509 11.8422 12.2264C11.4235 11.9547 11.0047 11.8868 9.849 11.8868H8.375V18.0849ZM11.4235 13.3641C11.6747 13.5849 11.725 13.8906 11.725 15.0623V16.4717H13.8187H15.9125V15.0792C15.9125 13.3641 16.0967 13.0755 17.286 13.0755H18.09V15.1981V17.3208H13.8187H9.5475V15.1981V13.0755H10.3347C10.8205 13.0755 11.2225 13.1774 11.4235 13.3641ZM46.766 13.3641C47.0172 13.5849 47.0675 13.8906 47.0675 15.0623V16.4717H49.1612H51.255V15.0792C51.255 13.3641 51.4392 13.0755 52.6285 13.0755H53.4325V15.1981V17.3208H49.1612H44.89V15.1981V13.0755H45.6772C46.163 13.0755 46.565 13.1774 46.766 13.3641ZM33.8182 13.517L34.84 13.6358V17.9321V22.2453H31.49H28.14V17.9321V13.6019L28.8602 13.534C30.15 13.4151 32.763 13.4151 33.8182 13.517ZM26.9675 18.6792V23.434H31.49H36.0125V18.6792C36.0125 16.0641 36.0795 13.9245 36.1465 13.9245C36.3642 13.9245 39.4295 14.9264 39.6472 15.0792C39.8147 15.1811 39.865 17.7453 39.865 26.5924L39.8817 37.9528L37.788 38.0038L35.6942 38.0547L35.644 34.3358L35.5937 30.617L35.1247 29.9208C34.8735 29.5302 34.3542 29.0038 33.969 28.7491C33.3492 28.3245 33.1147 28.2736 31.9255 28.2736C30.7362 28.2736 30.485 28.3245 29.8652 28.7321C29.48 28.9868 28.9607 29.5641 28.6927 30.0057C28.2237 30.8208 28.2237 30.8208 28.1735 34.4208L28.1232 38.0377H25.6107H23.115V26.5924V15.1472L23.8352 14.8585C24.7565 14.5019 26.4985 13.9585 26.7665 13.9415C26.9172 13.9245 26.9675 14.9774 26.9675 18.6792ZM21.909 18.2377C21.909 18.7472 21.8252 19.2736 21.7247 19.4094C21.5237 19.6641 14.8237 23.2641 14.539 23.2641C14.4552 23.2641 14.405 22.7887 14.4385 22.1943L14.4887 21.1415L18.09 19.2396C20.0665 18.1868 21.7415 17.3208 21.7917 17.3208C21.842 17.3208 21.8922 17.7283 21.909 18.2377ZM44.89 19.2396L48.4912 21.1415L48.5415 22.1943C48.575 22.9075 48.5247 23.2641 48.4075 23.2641C48.2902 23.2641 47.7542 23.0094 47.1847 22.6868C46.6152 22.3811 45.091 21.566 43.8012 20.8868C42.5115 20.2075 41.3557 19.5792 41.2552 19.4943C41.0207 19.3075 40.937 17.3208 41.1715 17.3208C41.2385 17.3208 42.9135 18.1868 44.89 19.2396ZM15.6612 19.1887C15.0247 19.5453 14.204 19.9868 13.869 20.1396L13.2325 20.4283V22.2453V24.0453L12.1437 24.6396L11.055 25.217V26.8641V28.5283L10.385 28.8679C10.0332 29.0547 9.6815 29.2075 9.63125 29.2075C9.581 29.2075 9.5475 26.7962 9.5475 23.8585V18.5094H13.199H16.8337L15.6612 19.1887ZM53.4325 23.8755C53.4325 26.8302 53.3822 29.2075 53.3152 29.1736C53.2315 29.1396 52.8965 29.0038 52.5615 28.8679L51.925 28.6302V26.9151V25.217L50.8362 24.6396L49.7475 24.0792V22.2623V20.4623L48.441 19.8C45.761 18.4075 45.6605 18.5094 49.7977 18.5094H53.4325V23.8755ZM21.909 29.4113L21.8587 37.9528H20.9375H20.0162L19.9325 35.6604C19.8822 34.3868 19.765 33.2151 19.6477 33.0283C19.1117 32.0774 17.9895 31.4151 16.9342 31.4151C16.1637 31.4151 15.0917 32.0943 14.6562 32.8415C14.271 33.5208 14.2375 33.7245 14.2375 35.7962V38.0377H13.2325H12.2275V31.9585V25.8962L13.7852 25.0981C14.6227 24.6566 16.7667 23.5358 18.5087 22.6019C20.2675 21.6679 21.7415 20.8868 21.8252 20.8868C21.8922 20.8868 21.9257 24.7245 21.909 29.4113ZM45.9955 23.383L50.7525 25.8962V31.9755V38.0547L49.7977 38.0038L48.8262 37.9528L48.7425 35.6604C48.642 32.9774 48.3907 32.366 47.168 31.7717C46.0457 31.2113 44.89 31.3811 44.0022 32.2132C43.215 32.9943 43.1312 33.266 43.0475 35.6604L42.9637 37.9528H42.0425H41.1212L41.071 29.4113C41.0542 24.7245 41.0877 20.8868 41.138 20.8868C41.1882 20.8868 43.3825 22.0075 45.9955 23.383ZM8.375 27.883L8.35825 29.9717L7.75525 30.2604C7.42025 30.4302 7.11875 30.5321 7.08525 30.5151C7.01825 30.4472 6.98475 26.4736 7.05175 26.4226C7.2025 26.3038 8.1405 25.8283 8.25775 25.8113C8.32475 25.8113 8.375 26.7453 8.375 27.883ZM55.409 26.1509L55.945 26.4906V28.5113V30.5491L55.275 30.2604L54.605 29.9717V27.883C54.605 26.7453 54.6552 25.8113 54.739 25.8113C54.806 25.8113 55.1075 25.9641 55.409 26.1509ZM11.055 33.9623V38.0377H10.653C10.2845 38.0377 10.251 37.9528 10.1672 36.917C10.1002 36 9.99975 35.7113 9.63125 35.3207C9.0785 34.7434 8.45875 34.5906 7.772 34.8962C6.968 35.2358 6.7 35.7453 6.7 36.9679C6.7 37.9189 6.6665 38.0377 6.365 38.0377C6.04675 38.0377 6.03 37.9189 6.03 35.2358V32.434L8.509 31.1774C9.86575 30.4811 10.988 29.9038 11.0215 29.9038C11.0382 29.8868 11.055 31.7208 11.055 33.9623ZM56.95 35.2358C56.95 37.9189 56.9332 38.0377 56.615 38.0377C56.3135 38.0377 56.28 37.9189 56.28 36.9679C56.28 35.7623 56.012 35.2358 55.2415 34.9132C53.8177 34.3019 52.7625 35.3547 52.7625 37.3755C52.7625 37.9698 52.7122 38.0377 52.3437 38.0377H51.925V33.9623V29.8868L54.4375 31.1604L56.95 32.434V35.2358Z" fill="white"/>
</g>
<defs>
<clipPath id="clip0_2_6">
<rect width="67" height="45" fill="white"/>
</clipPath>
</defs>
</svg>
