<svg width="36" height="37" viewBox="0 0 36 37" fill="none" xmlns="http://www.w3.org/2000/svg">
<path d="M6.18334 0.183C5.93006 0.239276 5.45868 0.415138 5.12801 0.576931C4.5933 0.837207 4.42445 0.977897 3.54501 1.86424C2.17307 3.243 1.41323 4.36852 0.808177 5.88093C-0.408974 8.97611 -0.247156 12.3175 1.26549 15.272C2.11679 16.9251 1.92683 16.7211 10.6087 25.4087C16.2794 31.0785 18.777 33.5265 19.1991 33.836C22.6536 36.3684 27.1071 36.7975 30.9203 34.9685C32.1375 34.3847 33.0451 33.7234 34.1919 32.5768C35.1135 31.6623 35.2542 31.4935 35.5146 30.9589C36.2111 29.5379 36.1548 28.0255 35.3668 26.6819C35.1206 26.2598 30.7585 21.7859 29.6117 20.78C28.5494 19.8374 27.6769 19.5208 26.3402 19.5841C25.0175 19.6404 24.2295 20.0414 22.9983 21.2794L22.3299 21.9547L18.2352 17.8607L14.1405 13.7666L14.8934 12.9858C16.1105 11.7407 16.4482 11.0442 16.5115 9.71473C16.5608 8.53997 16.2512 7.59735 15.5054 6.69693C14.8089 5.83873 9.84183 0.977897 9.40562 0.724655C8.44879 0.161896 7.20349 -0.0491382 6.18334 0.183ZM8.03369 1.62507C8.30807 1.70948 8.65985 1.89238 8.9061 2.07528C9.13123 2.25114 10.5032 3.58769 11.9595 5.05086C14.3024 7.40742 14.626 7.75914 14.823 8.16714C15.2592 9.07459 15.2592 9.91873 14.8371 10.8262C14.6612 11.199 14.429 11.4804 13.5496 12.3667C12.4942 13.436 12.4802 13.4571 12.4802 13.7666V14.0761L17.2503 18.8385L22.0133 23.6078H22.3229C22.6325 23.6078 22.6536 23.5938 23.7511 22.5105C24.9683 21.3146 25.2778 21.1106 26.1291 20.9629C26.7201 20.8644 27.297 20.9558 27.9232 21.2583C28.3313 21.4553 28.6971 21.7929 31.2018 24.3043C32.8551 25.9574 34.0934 27.2587 34.1989 27.4416C34.5085 27.9833 34.6281 28.5179 34.5859 29.1792C34.5366 30.0444 34.2974 30.4946 33.432 31.388C31.6169 33.2662 29.6258 34.3073 27.2407 34.6238C26.4035 34.7364 24.7642 34.6661 23.9481 34.4832C22.4073 34.1455 20.8876 33.428 19.7268 32.4854C19.2061 32.0633 4.2767 17.1572 3.76311 16.5382C2.89774 15.5111 2.32786 14.4841 1.89165 13.1687C1.49766 11.9869 1.37102 11.0583 1.42027 9.71473C1.49766 7.65362 2.08161 5.94424 3.29173 4.22783C3.72793 3.60879 5.15615 2.14562 5.55014 1.92052C6.32405 1.46328 7.18239 1.36479 8.03369 1.62507Z" fill="black"/>
</svg>
