<?xml version="1.0" ?><!-- Uploaded to: SVG Repo, www.svgrepo.com, Generator: SVG Repo Mixer Tools -->
<svg fill="#000000" width="800px" height="800px" viewBox="0 0 64 64" xmlns="http://www.w3.org/2000/svg"><title/><path d="M19.55,55.08c-7.37,0-13.37-1.58-16.54-3.24A1,1,0,0,1,3.43,50a38.37,38.37,0,0,0,15.86-4.44c-4.41-1.19-8.9-4.34-9.79-8.41a1,1,0,0,1,1.27-1.17,4.33,4.33,0,0,0,1.26.12A15.68,15.68,0,0,1,4.59,23.44a1,1,0,0,1,1.7-.76l0,0q.72.6,1.49,1.13a16.6,16.6,0,0,1-.6-12.94,1,1,0,0,1,1.69-.28C16,18.9,26.08,22.7,31.2,22.53a12.11,12.11,0,0,1-.2-2.2A12.35,12.35,0,0,1,43.34,8a14.33,14.33,0,0,1,8.93,3.42,19.86,19.86,0,0,0,2-.57A23.11,23.11,0,0,0,58,9.23a1,1,0,0,1,1.32,1.42,40.24,40.24,0,0,1-3.8,4.69A37.34,37.34,0,0,0,60.12,14a1,1,0,0,1,1.21,1.51,26.09,26.09,0,0,1-4.91,5c-.15,4.75-3.85,26.26-21.48,32.28l-.11,0A52.51,52.51,0,0,1,19.55,55.08ZM7.67,51.51a48.65,48.65,0,0,0,26.64-.63h0C51.31,45,54.55,23,54.42,20a1,1,0,0,1,.4-.85A23.91,23.91,0,0,0,57.39,17c-1.55.44-3.11.74-3.52.33a1,1,0,0,1-.23-.36,9.72,9.72,0,0,0-.49-1.08,1,1,0,0,1,.31-1.27,20.16,20.16,0,0,0,1.86-2l-.42.14a22.27,22.27,0,0,1-2.77.76,1,1,0,0,1-1-.35C49.93,11.67,46.33,10,43.34,10A10.31,10.31,0,0,0,33.4,23.14a1,1,0,0,1-.79,1.26c-5,.88-15.9-2.55-24.07-11.18-1.24,5,.65,10.69,3.47,13a1,1,0,0,1-1,1.68,26.14,26.14,0,0,1-4.08-2.29c.93,4.33,4,7.93,8.66,10.08a1,1,0,0,1-.09,1.85,12.93,12.93,0,0,1-3.48.5c1.63,3.1,6.15,5.52,9.87,5.91a1,1,0,0,1,.61,1.7C20.32,47.83,14,50.45,7.67,51.51ZM5.58,23.4h0Z"/></svg>